<svg t="1605433726963" class="icon" viewBox="0 0 1024 1024" version="1.1" xmlns="http://www.w3.org/2000/svg" p-id="2438" width="200" height="200"><path d="M23.297 254.771c1.35-24.668 2.094-49.429 4.003-74.004a63.67 63.67 0 0 1 59.389-57.387c27.6-1.862 55.34-2.234 82.846-5.12a704.012 704.012 0 0 0 304.3-106.119C492.73 0.273 512.233-3.497 533.55 3.531c5.585 1.955 11.077 4.794 16.103 8.005a717.277 717.277 0 0 0 270.184 102.116c36.676 6.05 73.724 8.797 110.958 9.355 39.19 0.605 64.788 26.065 67.534 64.975 3.724 51.663 3.165 103.093-1.722 154.616-17.22 178.68-77.122 340.51-194.55 479.35a723.607 723.607 0 0 1-261.2 195.712 67.488 67.488 0 0 1-58.04-0.558 728.54 728.54 0 0 1-240.954-173.42c-88.803-96.624-148.146-209.259-183.332-334.6a979.409 979.409 0 0 1-35.234-254.311z m68.372-66.836c-0.698 12.241-1.722 24.156-2.001 36.21a915.132 915.132 0 0 0 11.822 178.168c15.591 94.157 45.471 183.567 93.132 266.971 73.212 128.227 175.84 225.642 311.653 287.87a13.607 13.607 0 0 0 12.008 0c123.154-56.084 220.29-141.91 292.013-255.243 96.204-152.01 131.856-319.286 123.943-496.94-0.233-5.678-1.07-11.31-1.49-17.175l-5.864-0.465a807.24 807.24 0 0 1-122.13-10.705A777.876 777.876 0 0 1 517.82 67.621c-3.77-2.467-6.516-2.607-10.705-0.14-16.29 9.774-32.58 19.735-49.522 28.578a774.571 774.571 0 0 1-311.514 89.223c-17.733 1.117-35.511 1.862-54.361 2.7zM447.63 593.001c2.42-2.7 3.91-4.84 5.585-6.61l228.62-225.967c8.378-8.424 17.733-13.404 29.88-11.73 12.66 1.863 21.597 8.798 26.065 20.48a30.672 30.672 0 0 1-5.864 32.488c-1.722 1.954-3.724 3.863-5.632 5.678L474.3 656.53c-18.478 18.152-35.792 18.152-54.363-0.186a77597.393 77597.393 0 0 1-124.55-123.013c-13.543-13.497-14.52-32.487-2.699-45.52a32.72 32.72 0 0 1 47.474-1.023c20.014 19.362 39.61 39.003 59.296 58.505L447.631 593z" p-id="2439" fill="#0084FF"></path></svg>
