<svg t="1604978505660" class="icon" viewBox="0 0 1024 1024" version="1.1" xmlns="http://www.w3.org/2000/svg" p-id="2222" width="200" height="200"><path d="M209.052926 393.860619 79.05381 393.860619c-21.716196 0-40.291884 7.71759-55.682291 23.063224C7.981111 432.357744 0.308294 450.843887 0.308294 472.649629l0 393.769794c0 21.805742 7.672817 40.291884 23.063224 55.727064 15.390407 15.345634 33.966095 23.063224 55.682291 23.063224l102.035164 0L209.052926 393.860619zM118.448955 866.420702c-10.679006 0-19.876664-3.858155-27.683801-11.666571-7.807136-7.807136-11.711344-17.050847-11.711344-27.728574 0-10.58946 3.904208-19.831891 11.711344-27.639027 7.807136-7.807136 17.004795-11.666571 27.683801-11.666571s19.876664 3.858155 27.683801 11.666571c7.807136 7.807136 11.711344 17.049568 11.711344 27.639027 0 10.679006-3.904208 19.921437-11.711344 27.728574C138.325619 862.561267 129.126681 866.420702 118.448955 866.420702z" p-id="2223" fill="#0084ff"></path><path d="M915.321799 572.34892c20.101809-30.421351 30.151434-63.804118 30.151434-100.327393 0-42.267014-15.569499-78.969381-46.753271-110.197926-31.183772-31.138999-68.111283-46.753271-110.781254-46.753271l-108.268848 0c19.652799-40.561802 29.523332-79.956946 29.523332-118.094608 0-48.009474-7.179035-86.148416-21.537104-114.505091-14.358069-28.267129-35.311845-49.086585-62.77178-62.45709C597.379599 6.730025 566.420971 0 531.961093 0c-20.909002 0-39.395144 7.628044-55.36888 22.793307-17.632896 17.229939-30.376578 39.395144-38.138941 66.495616-7.807136 27.010926-14.089431 53.035566-18.799553 77.802724-4.711401 24.857983-11.979982 42.35656-21.851794 52.586557-20.101809 21.805742-42.04187 48.009474-65.822742 78.790289-35.577924 46.127728-61.299387 76.048901-77.21172 89.853064l-28.244103 556.889434 29.762548 0c9.018566 0 37.330468 8.1666 84.936985 24.588066 50.432335 17.678948 94.853571 31.138999 133.216377 40.291884 38.362806 9.242431 77.219395 13.90906 116.61454 13.90906l57.208412 0 22.165205 0c57.836514 0 104.410693-16.512291 139.677764-49.535595 35.267072-33.023303 52.720876-78.072641 52.316639-135.055909 24.588066-31.588008 36.927511-68.111283 36.927511-109.569824 0-8.973793-0.628102-17.858041-1.884305-26.47237 15.614272-27.459935 23.421409-56.983268 23.421409-88.571276C920.885167 599.987947 919.000862 585.810249 915.321799 572.34892z" p-id="2224" fill="#0084ff"></path></svg>
