<svg t="1607326399386" class="icon" viewBox="0 0 1024 1024" version="1.1" xmlns="http://www.w3.org/2000/svg" p-id="2652" width="200" height="200"><path d="M747.52 522.24L630.43584 624.64H614.4l-21.504 51.2-16.896-25.05728-51.38432 65.93536-0.32768-0.2048a20.48 20.48 0 0 1-31.26272-2.67264l-0.09216 0.06144-63.488-42.9056-39.936-68.67968-0.38912-0.31744V604.16l-102.4-81.92v-40.96h90.0608l34.8672-51.712 0.78848 0.512a20.31616 20.31616 0 0 1 35.75808 0.86016l61.53216 91.21792 49.152-72.79616 0.44032-0.65536 0.09216-0.13312a20.3776 20.3776 0 0 1 33.8944 0.96256l21.36064 31.744H747.52v40.96z" fill="#d81e06" p-id="2653"></path><path d="M765.00992 518.89152l-251.6992 251.6992-0.13312-0.13312-0.45056 0.45056-253.42976-253.41952a153.6 153.6 0 0 1 217.23136-217.23136l37.81632 37.81632 34.9184-34.92864a152.576 152.576 0 1 1 215.74656 215.74656zM736.256 331.91936a111.872 111.872 0 0 0-158.208 0l-63.88736 63.88736-28.78464-28.76416-37.81632-37.81632a112.64 112.64 0 0 0-159.29344 159.29344l224.4608 224.4608 0.29696-0.27648 0.32768 0.32768L736.256 490.12736a111.872 111.872 0 0 0 0-158.208z" fill="#d81e06" p-id="2654"></path><path d="M737.28 522.24H592.896l-16.896-25.05728-51.38432 76.17536-0.32768-0.2048a20.48 20.48 0 0 1-31.26272-2.67264l-0.09216 0.06144-63.488-94.1056-29.696 43.96032-0.38912-0.31744V522.24H286.72v-40.96h90.0608l34.8672-51.712 0.78848 0.512a20.31616 20.31616 0 0 1 35.75808 0.86016l61.53216 91.21792 49.152-72.79616 0.44032-0.65536 0.09216-0.13312a20.3776 20.3776 0 0 1 33.8944 0.96256l21.36064 31.744H737.28v40.96z" fill="#d81e06" p-id="2655"></path></svg>
