<svg t="1604299739631" class="icon" viewBox="0 0 1024 1024" version="1.1" xmlns="http://www.w3.org/2000/svg" p-id="2658" width="200" height="200"><path d="M826.2656 729.7024a25.6 25.6 0 0 1-21.76-39.0144 345.6512 345.6512 0 0 0 20.1728-37.9904 25.57952 25.57952 0 0 1 33.8944-12.7488 25.57952 25.57952 0 0 1 12.7488 33.8944 396.04224 396.04224 0 0 1-23.1936 43.6736 25.48224 25.48224 0 0 1-21.8624 12.1856z" fill="#474747" p-id="2659"></path><path d="M606.72 625.5616m-189.5424 0a189.5424 189.5424 0 1 0 379.0848 0 189.5424 189.5424 0 1 0-379.0848 0Z" fill="#FBF598" p-id="2660"></path><path d="M644.4544 663.2448m-151.8592 0a151.8592 151.8592 0 1 0 303.7184 0 151.8592 151.8592 0 1 0-303.7184 0Z" fill="#EAF5C5" p-id="2661"></path><path d="M682.4448 701.2864m-108.6976 0a108.6976 108.6976 0 1 0 217.3952 0 108.6976 108.6976 0 1 0-217.3952 0Z" fill="#D5F5FB" p-id="2662"></path><path d="M512 905.6256c-217.3952 0-394.24-176.8448-394.24-394.24s176.8448-394.24 394.24-394.24 394.24 176.8448 394.24 394.24c0 25.1904-2.4064 50.3808-7.1168 74.9056a25.58464 25.58464 0 0 1-30.0032 20.2752 25.55904 25.55904 0 0 1-20.2752-30.0032c4.096-21.3504 6.1952-43.3152 6.1952-65.2288 0-189.1328-153.9072-343.04-343.04-343.04s-343.04 153.9072-343.04 343.04 153.9072 343.04 343.04 343.04c90.8288 0 176.4352-35.1232 241.0496-98.9696a25.62048 25.62048 0 0 1 36.1984 0.2048 25.62048 25.62048 0 0 1-0.2048 36.1984C714.752 865.28 616.3968 905.6256 512 905.6256z" fill="#474747" p-id="2663"></path><path d="M468.224 670.1056c-14.9504 0-29.952-3.9424-43.5712-11.8272-27.2896-15.7696-43.5712-43.9808-43.5712-75.52V442.9312c0-31.488 16.2816-59.7504 43.5712-75.4688 27.2896-15.7696 59.904-15.7696 87.1936 0l121.1392 69.9392c27.2896 15.7696 43.5712 43.9808 43.5712 75.4688 0 31.5392-16.2816 59.7504-43.5712 75.52l-121.1392 69.9392c-13.6704 7.8336-28.6208 11.776-43.6224 11.776z m0-263.2192c-6.1952 0-12.3392 1.6384-17.9712 4.864a35.55328 35.55328 0 0 0-17.9712 31.1296v139.8784c0 13.0048 6.7072 24.6272 17.9712 31.1296 11.264 6.5024 24.7296 6.5024 35.9424 0l121.1392-69.9392a35.55328 35.55328 0 0 0 17.9712-31.1296c0-13.0048-6.7072-24.6272-17.9712-31.1296L486.2464 411.7504c-5.632-3.2256-11.8272-4.864-18.0224-4.864z" fill="#474747" p-id="2664"></path></svg>
